# Blender v2.76 (sub 0) OBJ File: 'tree.blend'
# www.blender.org
mtllib exemple.mtl
o Cylinder
v 0.235720 -0.026524 -1.210290
v 0.235720 1.070941 -1.210290
v 0.710936 -0.026524 -0.935924
v 0.710936 1.070941 -0.935924
v 0.710936 -0.026524 -0.387191
v 0.710936 1.070941 -0.387191
v 0.235720 -0.026524 -0.112824
v 0.235720 1.070941 -0.112824
v -0.239497 -0.026524 -0.387191
v -0.239497 1.070941 -0.387191
v -0.239497 -0.026524 -0.935924
v -0.239497 1.070941 -0.935924
v 0.235720 2.882852 -0.987634
v 0.518111 2.882852 -0.824596
v 0.518111 2.882852 -0.498519
v 0.235720 2.882852 -0.335480
v -0.046671 2.882852 -0.498519
v -0.046671 2.882852 -0.824596
v 0.235720 3.304562 -0.987634
v 0.518111 3.304562 -0.824596
v 0.518111 3.304562 -0.498519
v 0.235720 3.304562 -0.335480
v -0.046671 3.304562 -0.498519
v -0.046671 3.304562 -0.824596
v 0.235720 3.304562 -0.987634
v 0.518111 3.304562 -0.824596
v 0.518111 3.304562 -0.498519
v 0.235720 3.304562 -0.335480
v -0.046671 3.304562 -0.498519
v -0.046671 3.304562 -0.824596
v 0.235720 3.304562 -0.987634
v 0.518111 3.304562 -0.824596
v 0.518111 3.304562 -0.498519
v 0.235720 3.304562 -0.335480
v -0.046671 3.304562 -0.498519
v -0.046671 3.304562 -0.824596
v 0.235720 3.516751 -0.944236
v 0.480527 3.516751 -0.802896
v 0.480527 3.516751 -0.520218
v 0.235720 3.516751 -0.378879
v -0.009087 3.516751 -0.520218
v -0.009087 3.516751 -0.802896
v 0.235720 3.516751 -0.944236
v 0.480527 3.516751 -0.802896
v 0.480527 3.516751 -0.520218
v 0.235720 3.516751 -0.378879
v -0.009087 3.516751 -0.520218
v -0.009087 3.516751 -0.802896
v 0.235721 4.354267 -0.667788
v 0.373469 4.354267 -0.588259
v 0.373469 4.354267 -0.429201
v 0.235721 4.354267 -0.349672
v 0.097972 4.354267 -0.429201
v 0.097972 4.354267 -0.588259
v 0.235720 4.886333 -0.504979
v 0.345273 4.886333 -0.441729
v 0.345273 4.886333 -0.315227
v 0.235720 4.886333 -0.251976
v 0.126166 4.886333 -0.315227
v 0.126166 4.886333 -0.441729
v -0.809409 3.451529 -0.750501
v -0.751219 3.490654 -0.538645
v -0.776339 3.594643 -0.770371
v -0.725894 3.628561 -0.586711
v -1.333388 3.589060 -0.285932
v -1.275199 3.628185 -0.074075
v -1.300319 3.732174 -0.305802
v -1.249874 3.766092 -0.122142
v 0.904944 3.455257 -1.675152
v 0.586900 3.523962 -1.653851
v 0.922046 3.583579 -1.501518
v 0.646331 3.643139 -1.483052
v 0.978846 3.703784 -1.781712
v 0.660815 3.646516 -1.825336
v 0.911273 3.834313 -1.622641
v 0.635570 3.784667 -1.660459
v 0.938010 4.343886 -2.324307
v 0.619979 4.286618 -2.367932
v 0.870437 4.474415 -2.165236
v 0.594734 4.424769 -2.203054
v 0.235720 3.304562 -0.335480
v 0.518111 3.304562 -0.498519
v 0.235720 3.516751 -0.378879
v 0.480527 3.516751 -0.520218
v 0.944426 3.530494 0.653453
v 1.012806 3.572184 0.437459
v 0.852339 3.650633 0.631139
v 0.911618 3.686775 0.443893
v 1.366925 3.920118 0.824912
v 1.414431 3.949082 0.674852
v 1.302949 4.003583 0.809409
v 1.344132 4.028692 0.679321
v 1.420607 3.943718 0.811670
v 1.381498 3.954109 0.656828
v 1.330119 3.997320 0.827115
v 1.296214 4.006328 0.692881
v 1.960657 4.398685 0.115548
v 1.921547 4.409076 -0.039294
v 1.870168 4.452287 0.130992
v 1.836264 4.461295 -0.003242
vn 0.500000 0.000000 -0.866000
vn 1.000000 0.000000 0.000000
vn 0.500000 0.000000 0.866000
vn -0.500000 0.000000 0.866000
vn -0.497200 0.105800 0.861200
vn -0.500000 0.000000 -0.866000
vn -1.000000 0.000000 0.000000
vn 0.000000 -1.000000 -0.000000
vn 0.994400 0.105800 0.000000
vn -0.994400 0.105800 0.000000
vn 0.497200 0.105800 -0.861200
vn 0.497200 0.105800 0.861200
vn -0.497200 0.105800 -0.861200
vn 0.000000 0.000000 1.000000
vn -0.492300 0.174400 0.852800
vn 0.984700 0.174400 0.000000
vn -0.031400 0.200800 0.979100
vn 0.065300 0.978100 0.197700
vn -0.492300 0.174400 -0.852800
vn 0.991900 0.126800 0.000000
vn 0.483300 0.256200 -0.837100
vn -0.991900 0.126800 0.000000
vn 0.499800 -0.030200 0.865600
vn 0.480700 0.274800 -0.832700
vn -0.480700 0.274800 -0.832700
vn -0.499800 -0.030200 0.865600
vn 0.000000 1.000000 0.000000
vn -0.483300 0.256200 -0.837100
vn -0.493800 -0.157000 0.855300
vn 0.998600 0.052900 0.000000
vn -0.998600 0.052900 0.000000
vn 0.493800 -0.157000 0.855300
vn -0.655800 0.046900 -0.753500
vn -0.218300 -0.971300 0.094300
vn -0.066800 0.018400 -0.997600
vn 0.128300 0.988000 -0.085700
vn -0.944900 0.248000 0.213700
vn 0.077500 0.976400 -0.201600
vn 0.676600 0.128500 0.725100
vn -0.077500 -0.976400 0.201600
vn 0.982500 -0.041500 0.181400
vn -0.820300 0.406900 -0.401800
vn -0.049200 -0.964600 -0.259300
vn 0.875500 -0.199800 0.440100
vn -0.992000 -0.112300 -0.057800
vn 0.017100 -0.603900 -0.796900
vn -0.982400 0.182400 -0.039800
vn -0.017100 0.604900 0.796100
vn -0.048600 0.761900 -0.645900
vn -0.215400 0.623400 0.751600
vn 0.948800 0.237200 0.208400
vn 0.215400 -0.623400 -0.751600
vn -0.818200 -0.115400 0.563200
vn 0.270300 0.290200 -0.918000
vn 0.228700 -0.967800 0.105200
vn 0.818400 0.325400 -0.473700
vn -0.178100 0.982400 -0.056700
vn -0.044400 -0.049700 0.997800
vn -0.606600 0.794000 -0.038800
vn -0.319500 -0.069400 0.945000
vn 0.662000 -0.746700 0.065500
vn 0.487300 -0.854400 -0.180400
vn 0.776200 -0.627700 -0.059600
vn 0.008200 -0.285000 0.958500
vn 0.499800 0.863400 -0.068300
vn -0.560300 -0.423800 -0.711700
vn -0.487300 0.854400 0.180400
vn 0.446300 0.550100 0.705800
usemtl Material.001
s off
f 1//1 2//1 4//1 3//1
f 3//2 4//2 6//2 5//2
f 5//3 6//3 8//3 7//3
f 7//4 8//4 10//4 9//4
f 10//5 8//5 16//5 17//5
f 11//6 12//6 2//6 1//6
f 9//7 10//7 12//7 11//7
f 1//8 3//8 5//8 7//8 9//8 11//8
f 18//7 17//7 23//7 24//7
f 6//9 4//9 14//9 15//9
f 12//10 10//10 17//10 18//10
f 4//11 2//11 13//11 14//11
f 8//12 6//12 15//12 16//12
f 2//13 12//13 18//13 13//13
f 19//14 24//14 30//14 25//14
f 16//3 15//3 21//3 22//3
f 14//1 13//1 19//1 20//1
f 13//6 18//6 24//6 19//6
f 17//4 16//4 22//4 23//4
f 15//2 14//2 20//2 21//2
f 30//14 29//14 35//14 36//14
f 23//14 22//14 28//14 29//14
f 21//14 20//14 26//14 27//14
f 24//14 23//14 29//14 30//14
f 22//14 21//14 27//14 28//14
f 20//14 19//14 25//14 26//14
f 35//15 34//15 40//15 41//15
f 28//14 27//14 33//14 34//14
f 26//14 25//14 31//14 32//14
f 25//14 30//14 36//14 31//14
f 29//14 28//14 34//14 35//14
f 27//14 26//14 32//14 33//14
f 40//14 39//14 45//14 46//14
f 33//16 32//16 38//16 39//16
f 35//17 41//17 64//17 62//17
f 39//14 40//14 83//14 84//14
f 37//18 38//18 71//18 72//18
f 31//19 36//19 42//19 37//19
f 45//20 44//20 50//20 51//20
f 38//14 37//14 43//14 44//14
f 37//14 42//14 48//14 43//14
f 41//14 40//14 46//14 47//14
f 39//14 38//14 44//14 45//14
f 42//14 41//14 47//14 48//14
f 50//21 49//21 55//21 56//21
f 48//22 47//22 53//22 54//22
f 46//23 45//23 51//23 52//23
f 44//24 43//24 49//24 50//24
f 43//25 48//25 54//25 49//25
f 47//26 46//26 52//26 53//26
f 56//27 55//27 60//27 59//27 58//27 57//27
f 49//28 54//28 60//28 55//28
f 53//29 52//29 58//29 59//29
f 51//30 50//30 56//30 57//30
f 54//31 53//31 59//31 60//31
f 52//32 51//32 57//32 58//32
f 63//33 61//33 65//33 67//33
f 36//34 35//34 62//34 61//34
f 42//35 36//35 61//35 63//35
f 41//36 42//36 63//36 64//36
f 65//37 66//37 68//37 67//37
f 64//38 63//38 67//38 68//38
f 62//39 64//39 68//39 66//39
f 61//40 62//40 66//40 65//40
f 71//41 69//41 73//41 75//41
f 31//42 37//42 72//42 70//42
f 32//43 31//43 70//43 69//43
f 38//44 32//44 69//44 71//44
f 74//45 76//45 80//45 78//45
f 69//46 70//46 74//46 73//46
f 70//47 72//47 76//47 74//47
f 72//48 71//48 75//48 76//48
f 77//49 78//49 80//49 79//49
f 76//50 75//50 79//50 80//50
f 75//51 73//51 77//51 79//51
f 73//52 74//52 78//52 77//52
f 83//53 81//53 85//53 87//53
f 33//14 39//14 84//14 82//14
f 34//14 33//14 82//14 81//14
f 40//14 34//14 81//14 83//14
f 86//54 88//54 92//54 90//54
f 81//55 82//55 86//55 85//55
f 82//56 84//56 88//56 86//56
f 84//57 83//57 87//57 88//57
f 91//58 89//58 93//58 95//58
f 88//59 87//59 91//59 92//59
f 87//60 85//60 89//60 91//60
f 85//61 86//61 90//61 89//61
f 93//62 94//62 98//62 97//62
f 89//63 90//63 94//63 93//63
f 90//64 92//64 96//64 94//64
f 92//63 91//63 95//63 96//63
f 97//65 98//65 100//65 99//65
f 94//66 96//66 100//66 98//66
f 96//67 95//67 99//67 100//67
f 95//68 93//68 97//68 99//68
o Sphere
v -0.647629 5.897167 -0.000000
v -0.345440 4.886878 -0.000000
v 0.006129 6.353534 -0.608936
v -0.152799 5.364124 -0.865653
v 0.243941 4.624149 -0.257654
v 0.102904 6.616618 0.000000
v 0.732674 6.322954 -0.649477
v 0.838996 5.317529 -0.851730
v 0.607699 4.754180 -0.433013
v 1.350824 5.916704 0.013105
v 1.086453 4.903611 -0.020190
v 0.710439 6.556864 0.203655
v 0.838996 5.922883 0.851730
v 0.732674 4.917458 0.649477
v 0.107698 6.486231 0.433013
v -0.128872 5.865745 0.867071
v -0.024164 4.903611 0.621025
vn -0.751200 0.276200 -0.599500
vn -0.678300 0.707600 -0.197900
vn -0.005000 0.224300 -0.974500
vn 0.846300 -0.212400 0.488500
vn 0.898800 -0.222100 -0.378000
vn 0.668000 0.722000 -0.180500
vn 0.615400 -0.617100 -0.490300
vn 0.001700 -0.222200 0.975000
vn 0.065400 0.648500 0.758400
vn -0.847600 -0.234200 0.476200
vn 0.016300 0.916900 -0.398700
vn 0.179200 0.950000 -0.255800
vn 0.322800 -0.945900 -0.031900
vn 0.269300 -0.949400 0.161900
vn 0.006000 -0.952400 0.304700
vn -0.002500 0.957500 0.288300
vn -0.327300 -0.924700 0.194200
vn -0.693100 0.626200 0.357000
vn -0.525200 -0.690400 -0.497500
vn -0.054700 -0.622200 -0.781000
vn -0.898200 -0.268700 -0.348000
vn 0.774900 0.202400 -0.598800
vn 0.700400 0.574700 0.423200
usemtl Material.002
s off
f 101//69 103//69 104//69
f 101//70 106//70 103//70
f 108//71 104//71 103//71 107//71
f 111//72 110//72 113//72 114//72
f 108//73 110//73 111//73
f 107//74 112//74 110//74
f 109//75 108//75 111//75
f 117//76 114//76 113//76 116//76
f 116//77 113//77 112//77 115//77
f 102//78 117//78 116//78 101//78
f 103//79 106//79 107//79
f 107//80 106//80 112//80
f 105//81 109//81 111//81
f 105//82 111//82 114//82
f 105//83 114//83 117//83
f 112//84 106//84 115//84
f 105//85 117//85 102//85
f 116//86 115//86 106//86 101//86
f 105//87 102//87 104//87
f 109//88 105//88 104//88 108//88
f 102//89 101//89 104//89
f 108//90 107//90 110//90
f 113//91 110//91 112//91
o Sphere.001
v 1.324468 4.931949 -0.000000
v 1.626658 3.921659 -0.000000
v 1.978227 5.388316 -0.608936
v 1.819299 4.398906 -0.865653
v 2.216039 3.658931 -0.257654
v 2.075002 5.651400 0.000000
v 2.704772 5.357737 -0.649477
v 2.811094 4.352311 -0.851730
v 2.579797 3.788962 -0.433013
v 3.322922 4.951486 0.013105
v 3.058551 3.938393 -0.020190
v 2.682537 5.591646 0.203655
v 2.811094 4.957664 0.851730
v 2.704772 3.952240 0.649477
v 2.079796 5.521013 0.433013
v 1.843226 4.900527 0.867071
v 1.947934 3.938393 0.621025
vn -0.751200 0.276200 -0.599500
vn -0.678300 0.707600 -0.197900
vn -0.005000 0.224300 -0.974500
vn 0.846300 -0.212400 0.488500
vn 0.898800 -0.222100 -0.378000
vn 0.668000 0.722000 -0.180500
vn 0.615400 -0.617100 -0.490300
vn 0.001700 -0.222200 0.975000
vn 0.065400 0.648500 0.758400
vn -0.847600 -0.234200 0.476200
vn 0.016300 0.916900 -0.398700
vn 0.179200 0.950000 -0.255800
vn 0.322800 -0.945900 -0.031900
vn 0.269300 -0.949400 0.161900
vn 0.006000 -0.952400 0.304700
vn -0.002500 0.957500 0.288400
vn -0.327300 -0.924700 0.194200
vn -0.693100 0.626200 0.357000
vn -0.525200 -0.690400 -0.497500
vn -0.054700 -0.622200 -0.781000
vn -0.898200 -0.268700 -0.348000
vn 0.774900 0.202400 -0.598800
vn 0.700400 0.574700 0.423200
usemtl Material.002
s off
f 118//92 120//92 121//92
f 118//93 123//93 120//93
f 125//94 121//94 120//94 124//94
f 128//95 127//95 130//95 131//95
f 125//96 127//96 128//96
f 124//97 129//97 127//97
f 126//98 125//98 128//98
f 134//99 131//99 130//99 133//99
f 133//100 130//100 129//100 132//100
f 119//101 134//101 133//101 118//101
f 120//102 123//102 124//102
f 124//103 123//103 129//103
f 122//104 126//104 128//104
f 122//105 128//105 131//105
f 122//106 131//106 134//106
f 129//107 123//107 132//107
f 122//108 134//108 119//108
f 133//109 132//109 123//109 118//109
f 122//110 119//110 121//110
f 126//111 122//111 121//111 125//111
f 119//112 118//112 121//112
f 125//113 124//113 127//113
f 130//114 127//114 129//114
o Sphere.002
v -0.647629 5.347629 -2.244622
v -0.345440 4.337340 -2.244622
v 0.006129 5.803996 -2.853558
v -0.152799 4.814587 -3.110275
v 0.243941 4.074612 -2.502276
v 0.102904 6.067080 -2.244622
v 0.732674 5.773417 -2.894099
v 0.838996 4.767991 -3.096353
v 0.607699 4.204643 -2.677635
v 1.350824 5.367167 -2.231517
v 1.086453 4.354073 -2.264812
v 0.710439 6.007326 -2.040967
v 0.838996 5.373345 -1.392892
v 0.732674 4.367920 -1.595146
v 0.107698 5.936694 -1.811610
v -0.128872 5.316207 -1.377551
v -0.024164 4.354074 -1.623597
vn -0.751200 0.276200 -0.599500
vn -0.678300 0.707600 -0.197900
vn -0.005000 0.224300 -0.974500
vn 0.846300 -0.212400 0.488500
vn 0.898800 -0.222100 -0.378000
vn 0.668000 0.722000 -0.180500
vn 0.615400 -0.617100 -0.490300
vn 0.001700 -0.222200 0.975000
vn 0.065400 0.648500 0.758400
vn -0.847600 -0.234200 0.476200
vn 0.016300 0.916900 -0.398700
vn 0.179200 0.950000 -0.255800
vn 0.322800 -0.945900 -0.031900
vn 0.269300 -0.949400 0.161900
vn 0.006000 -0.952400 0.304700
vn -0.002500 0.957500 0.288400
vn -0.327300 -0.924700 0.194200
vn -0.693100 0.626200 0.357000
vn -0.525200 -0.690400 -0.497500
vn -0.054700 -0.622200 -0.781000
vn -0.898200 -0.268700 -0.348000
vn 0.774900 0.202400 -0.598800
vn 0.700400 0.574700 0.423200
usemtl Material.002
s off
f 135//115 137//115 138//115
f 135//116 140//116 137//116
f 142//117 138//117 137//117 141//117
f 145//118 144//118 147//118 148//118
f 142//119 144//119 145//119
f 141//120 146//120 144//120
f 143//121 142//121 145//121
f 151//122 148//122 147//122 150//122
f 150//123 147//123 146//123 149//123
f 136//124 151//124 150//124 135//124
f 137//125 140//125 141//125
f 141//126 140//126 146//126
f 139//127 143//127 145//127
f 139//128 145//128 148//128
f 139//129 148//129 151//129
f 146//130 140//130 149//130
f 139//131 151//131 136//131
f 150//132 149//132 140//132 135//132
f 139//133 136//133 138//133
f 143//134 139//134 138//134 142//134
f 136//135 135//135 138//135
f 142//136 141//136 144//136
f 147//137 144//137 146//137
o Sphere.003
v -2.121858 4.067924 0.369944
v -1.819668 3.057634 0.369944
v -1.468099 4.524291 -0.238992
v -1.627028 3.534881 -0.495709
v -1.230287 2.794906 0.112291
v -1.371324 4.787374 0.369944
v -0.741554 4.493711 -0.279533
v -0.635232 3.488286 -0.481786
v -0.866530 2.924937 -0.063069
v -0.123404 4.087461 0.383049
v -0.387775 3.074368 0.349754
v -0.763789 4.727621 0.573599
v -0.635232 4.093639 1.221675
v -0.741554 3.088214 1.019421
v -1.366530 4.656988 0.802957
v -1.603100 4.036501 1.237015
v -1.498392 3.074368 0.990969
vn -0.751200 0.276200 -0.599500
vn -0.678300 0.707600 -0.197900
vn -0.005000 0.224300 -0.974500
vn 0.846300 -0.212400 0.488500
vn 0.898800 -0.222100 -0.378000
vn 0.668000 0.722000 -0.180500
vn 0.615400 -0.617100 -0.490300
vn 0.001700 -0.222200 0.975000
vn 0.065400 0.648500 0.758400
vn -0.847600 -0.234200 0.476200
vn 0.016300 0.916900 -0.398700
vn 0.179200 0.950000 -0.255800
vn 0.322800 -0.945900 -0.031900
vn 0.269300 -0.949400 0.161900
vn 0.006000 -0.952400 0.304700
vn -0.002500 0.957500 0.288400
vn -0.327300 -0.924700 0.194200
vn -0.693100 0.626200 0.357000
vn -0.525200 -0.690400 -0.497500
vn -0.054700 -0.622200 -0.781000
vn -0.898200 -0.268700 -0.348000
vn 0.774900 0.202400 -0.598800
vn 0.700400 0.574700 0.423200
usemtl Material.002
s off
f 152//138 154//138 155//138
f 152//139 157//139 154//139
f 159//140 155//140 154//140 158//140
f 162//141 161//141 164//141 165//141
f 159//142 161//142 162//142
f 158//143 163//143 161//143
f 160//144 159//144 162//144
f 168//145 165//145 164//145 167//145
f 167//146 164//146 163//146 166//146
f 153//147 168//147 167//147 152//147
f 154//148 157//148 158//148
f 158//149 157//149 163//149
f 156//150 160//150 162//150
f 156//151 162//151 165//151
f 156//152 165//152 168//152
f 163//153 157//153 166//153
f 156//154 168//154 153//154
f 167//155 166//155 157//155 152//155
f 156//156 153//156 155//156
f 160//157 156//157 155//157 159//157
f 153//158 152//158 155//158
f 159//159 158//159 161//159
f 164//160 161//160 163//160
